<?xml version="1.0" encoding="UTF-8" standalone="no"?>
<svg
   xmlns:dc="http://purl.org/dc/elements/1.1/"
   xmlns:cc="http://creativecommons.org/ns#"
   xmlns:rdf="http://www.w3.org/1999/02/22-rdf-syntax-ns#"
   xmlns:svg="http://www.w3.org/2000/svg"
   xmlns="http://www.w3.org/2000/svg"
   xmlns:sodipodi="http://sodipodi.sourceforge.net/DTD/sodipodi-0.dtd"
   xmlns:inkscape="http://www.inkscape.org/namespaces/inkscape"
   height="210"
   version="1.0"
   width="820"
   viewBox="0 0 820 210"
   id="svg2"
   inkscape:version="0.48.3.1 r9886"
   sodipodi:docname="icon.svg">
  <metadata
     id="metadata28">
    <rdf:RDF>
      <cc:Work
         rdf:about="">
        <dc:format>image/svg+xml</dc:format>
        <dc:type
           rdf:resource="http://purl.org/dc/dcmitype/StillImage" />
        <dc:title></dc:title>
      </cc:Work>
    </rdf:RDF>
  </metadata>
  <defs
     id="defs26" />
  <sodipodi:namedview
     pagecolor="#ffffff"
     bordercolor="#666666"
     borderopacity="1"
     objecttolerance="10"
     gridtolerance="10"
     guidetolerance="10"
     inkscape:pageopacity="0"
     inkscape:pageshadow="2"
     inkscape:window-width="1535"
     inkscape:window-height="876"
     id="namedview24"
     showgrid="false"
     inkscape:zoom="0.79465334"
     inkscape:cx="606.81673"
     inkscape:cy="330.35388"
     inkscape:window-x="65"
     inkscape:window-y="24"
     inkscape:window-maximized="1"
     inkscape:current-layer="svg2" />
  <g
     id="g3009"
     transform="translate(-781.69761,4.646109)">
    <path
       inkscape:connector-curvature="0"
       id="path4"
       style="fill:none;stroke:#9c772d;stroke-width:4.42500019;stroke-linecap:round;stroke-linejoin:miter;stroke-miterlimit:4;stroke-opacity:1;stroke-dasharray:none"
       d="M 847.56486,46.529834 C 831.01034,60.36383 820.4792,81.165386 820.4792,104.42633 820.4792,146.07633 854.24295,179.84008 895.89295,179.84008 L 895.89294,179.84009 C 937.54295,179.84008 971.30665,146.07633 971.30665,104.42633 971.30665,84.803407 963.81215,66.930734 951.52915,53.514818" />
    <path
       inkscape:connector-curvature="0"
       id="path6"
       style="fill:none;stroke:#f2304a;stroke-width:6.63749981;stroke-linecap:butt;stroke-linejoin:miter;stroke-miterlimit:4;stroke-opacity:1;stroke-dasharray:none"
       d="M 850.54832,63.549414 C 861.94832,63.549414 871.19082,54.308164 871.19082,42.906914 871.19082,31.506914 861.94832,22.264414 850.54832,22.264414 839.14832,22.264414 829.90582,31.506914 829.90582,42.906914 829.90582,54.308164 839.14832,63.549414 850.54832,63.549414 z" />
    <path
       inkscape:connector-curvature="0"
       id="path8"
       style="fill:none;stroke:#d6c99c;stroke-width:8.85000038;stroke-linecap:round;stroke-linejoin:miter;stroke-miterlimit:4;stroke-opacity:1;stroke-dasharray:none"
       d="M 909.93111,109.9954 C 913.95061,112.77938 918.82925,114.41051 924.08875,114.41051 L 924.08875,114.41051 C 937.83745,114.41051 948.98375,103.26426 948.98375,89.515505 948.98375,81.225235 944.93105,73.881659 938.69885,69.357348" />
    <path
       inkscape:connector-curvature="0"
       id="path10"
       style="fill:none;stroke:#ff9c00;stroke-width:22.125;stroke-linecap:butt;stroke-linejoin:miter;stroke-miterlimit:4;stroke-opacity:1;stroke-dasharray:none"
       d="M 944.61595,90.2403 C 962.71845,90.2403 977.39475,75.5653 977.39475,57.4628 977.39475,39.35905 962.71845,24.68405 944.61595,24.68405 926.51345,24.68405 911.83847,39.35905 911.83847,57.4628 911.83847,75.5653 926.51345,90.2403 944.61595,90.2403 z" />
    <path
       inkscape:connector-curvature="0"
       id="path12"
       style="fill:none;stroke:#d6c99c;stroke-width:8.85000038;stroke-linecap:round;stroke-linejoin:miter;stroke-miterlimit:4;stroke-opacity:1;stroke-dasharray:none"
       d="M 938.69885,69.357348 C 934.59545,66.378452 929.54725,64.621755 924.08875,64.621755 910.33999,64.621756 899.19374,75.766755 899.19374,89.515505 899.19374,98.004767 903.44329,105.50182 909.93111,109.9954" />
    <path
       inkscape:connector-curvature="0"
       id="path14"
       style="fill:none;stroke:#9c772d;stroke-width:4.42500019;stroke-linecap:round;stroke-linejoin:miter;stroke-miterlimit:4;stroke-opacity:1;stroke-dasharray:none"
       d="M 951.52915,53.514818 C 937.74135,38.45521 917.92002,29.011325 895.89295,29.011325 877.50389,29.011325 860.65213,35.593294 847.56486,46.529834" />
    <g
       id="g16"
       transform="matrix(1.25,0,0,-1.25,793.50724,75.341543)">
      <path
         inkscape:connector-curvature="0"
         id="path18"
         style="fill:#86be29;fill-opacity:1;fill-rule:nonzero;stroke:none"
         d="M 0,0 C -2.748,-2.748 -2.748,-7.204 0,-9.952 L 0,-9.952 12.441,-22.393 0,-34.834 C -2.748,-37.582 -2.748,-42.038 0,-44.786 2.748,-47.534 7.204,-47.534 9.953,-44.786 L 22.393,-32.345 34.834,-44.786 C 37.582,-47.534 42.038,-47.534 44.786,-44.786 47.534,-42.038 47.534,-37.582 44.786,-34.834 L 32.346,-22.393 44.786,-9.952 C 47.534,-7.204 47.534,-2.748 44.786,0 42.038,2.748 37.582,2.748 34.834,0 L 22.393,-12.441 9.953,0 9.953,0 C 7.204,2.748 2.748,2.748 0,0" />
    </g>
    <g
       id="g20"
       transform="matrix(1.25,0,0,-1.25,922.76675,144.83424)">
      <path
         inkscape:connector-curvature="0"
         id="path22"
         style="fill:#ffdc00;fill-opacity:1;fill-rule:nonzero;stroke:none"
         d="M 0,0 C 0,11.685 -9.473,21.158 -21.158,21.158 -32.843,21.158 -42.316,11.685 -42.316,0 -42.316,-11.685 -32.843,-21.158 -21.158,-21.158 -9.473,-21.158 0,-11.685 0,0 M -15.772,0 -9.04,-6.732 C -7.552,-8.22 -7.552,-10.631 -9.04,-12.118 -10.527,-13.606 -12.938,-13.606 -14.426,-12.118 L -21.158,-5.386 -27.89,-12.118 C -29.378,-13.606 -31.789,-13.606 -33.276,-12.118 -34.764,-10.631 -34.764,-8.22 -33.276,-6.732 L -26.544,0 -33.276,6.732 C -34.764,8.22 -34.764,10.631 -33.276,12.118 -31.789,13.606 -29.378,13.606 -27.89,12.118 L -21.158,5.386 -14.426,12.118 C -12.938,13.606 -10.527,13.606 -9.04,12.118 -7.552,10.631 -7.552,8.22 -9.04,6.732 L -15.772,0 z" />
    </g>
  </g>
  <text
     xml:space="preserve"
     style="font-size:34.31447601px;font-style:normal;font-variant:normal;font-weight:normal;font-stretch:normal;text-align:center;line-height:125%;letter-spacing:0px;word-spacing:0px;text-anchor:middle;fill:#000000;fill-opacity:1;stroke:none;font-family:Khmer OS;-inkscape-font-specification:Khmer OS"
     x="509.17841"
     y="134.29355"
     id="text3005"
     sodipodi:linespacing="125%"><tspan
       sodipodi:role="line"
       id="tspan3007"
       x="509.17841"
       y="134.29355"
       style="font-size:109.80632019px;font-style:normal;font-variant:normal;font-weight:normal;font-stretch:normal;font-family:Nunito;-inkscape-font-specification:Nunito">buddycloud</tspan></text>
</svg>
